<svg xmlns="http://www.w3.org/2000/svg" viewBox="0 0 1190.13 128.53"><defs><style>.cls-1{fill:#231f20;}</style></defs><title>logo-1</title><g id="Layer_2" data-name="Layer 2"><g id="Layer_1-2" data-name="Layer 1"><path class="cls-1" d="M11.72,117.22C1.63,109.74-1.92,98.34,1,83.1L3.41,69.92H44L42.2,79.55c-1.5,7.29-.66,12.8,2.52,16.64s9.82,5.7,20,5.7,17.57-1.78,22.06-5.24,7.47-8.88,8.78-16L109.5,1.12H150L135.11,85.53c-2.43,13.84-9.91,24.4-22.43,31.88s-30,11.12-52.54,11.12Q26.78,128.53,11.72,117.22Z"/><path class="cls-1" d="M171.38,1.12h115L281.58,28h-74.4l-4,23h68.42l-4.49,25.42H198.67l-4.21,23.93h74.41l-4.77,26.92h-115Z"/><path class="cls-1" d="M286.25,99.37l84.41-71.51H300.18l4.67-26.74H422.26l-4.86,27L333,100.39h73.38l-4.68,26.92H281.3Z"/><path class="cls-1" d="M436.74,116.1c-9.53-7.95-13-19.17-10.47-33.75h40.66q-2.1,12.48,5.89,15.71c5.33,2.15,12.16,3.27,20.47,3.27a80.43,80.43,0,0,0,21.5-2.53c6.08-1.68,9.35-4.39,9.91-8.22.75-4.21-2.8-7.11-10.65-8.51S496.1,79,483.48,77.21c-20.85-3.08-34.49-7.57-41-13.37S433,50.38,433.66,41c.56-12.25,7.38-22.16,20.66-29.73S486.28,0,510.49,0s41.32,4.11,51,12.25,13.27,19.16,10.93,33.09H531.71c1.41-8-.65-13.09-6.07-15.15a59.83,59.83,0,0,0-20-3,91.15,91.15,0,0,0-22.24,2.34c-6.17,1.5-9.54,4-10.1,7.66q-1.12,6.73,10.1,9c7.38,1.4,17.76,3.18,30.94,5.14,22,3.36,36.17,7.38,42.81,12.24s9.25,12.25,8.13,22.34C564,98.8,557,109.09,544.43,116.66s-31,11.4-55.53,11.4Q451,128.06,436.74,116.1Z"/><path class="cls-1" d="M600.22,1.12H683.7c17.76,0,29.07,4.49,33.65,13.37a56.38,56.38,0,0,1,5.89,29.63,58.47,58.47,0,0,1-14.21,36C700.24,90.39,687,95.44,669.21,95.44H624.15l-5.7,31.87H577.88Zm61.32,67.4c6.17,0,11.13-1.59,14.87-4.86s5.89-8.79,6.63-16.45c.75-6.83.1-11.69-2-14.68S674.91,28,668.65,28H636.12l-7.2,40.48Z"/><path class="cls-1" d="M742.21,112.45c-10.1-10.75-13.65-26.83-10.47-48.23q4.77-32.8,25.33-48.51T816.05,0c25.52,0,43.38,5.33,53.38,16.08S883.08,42.81,880,64.22c-3.27,21.87-11.68,38-25.42,48.61s-33.37,15.7-58.89,15.7S752.3,123.11,742.21,112.45ZM824.93,94.6c6.92-4.58,11.78-14.77,14.49-30.38,2.81-15.8,1.59-26-3.74-30.47s-13.08-6.83-23.27-6.83-18.7,2.24-25.61,6.83S775,48.42,772.21,64.22c-2.71,15.61-1.49,25.8,3.84,30.38s13,7,23.18,7S818,99.27,824.93,94.6Z"/><path class="cls-1" d="M908.31,1.12h90.86c15.14,0,25.14,3.74,30,11.31s6.45,17.2,4.68,28.89C1032,53.38,1027.12,62.91,1019,70q-7.85,6.87-20.75,9.26l23.18,48H976.64L956.92,80.58H935l-8.23,46.73H886.06ZM975.42,55.9c5.43,0,9.54-1.12,12.25-3.37S992.16,46.74,993,42c.84-4.58.28-8.13-1.69-10.47s-5.6-3.46-11-3.46H944.2L939.34,55.9Z"/><path class="cls-1" d="M1099,28h-45.8l4.68-26.92h132.26L1185.37,28h-45.71l-17.48,99.27h-40.67Z"/></g></g></svg>