<svg xmlns="http://www.w3.org/2000/svg" viewBox="0 0 859.9 128.68"><defs><style>.cls-1{fill:#231f20;}</style></defs><title>logo-1</title><g id="Layer_2" data-name="Layer 2"><g id="Layer_1-2" data-name="Layer 1"><path class="cls-1" d="M125.19,117.47V58.14a8.9,8.9,0,0,0,14.74,6.72,9,9,0,0,0,.87-.88l20.13-20.13,13.74-13.74.16-.15.32-.32.16-.17A18.87,18.87,0,0,0,170.89,0a35,35,0,0,1,13.9,57.86l-.3.3-10.1,10.11-48.12,48.12a3.87,3.87,0,0,0-.41.4Z"/><path class="cls-1" d="M117.47,117.47V58.14a8.9,8.9,0,0,1-14.74,6.72,8.12,8.12,0,0,1-.88-.88L81.72,43.85,68,30.11,67.83,30l-.32-.32-.16-.17A18.87,18.87,0,0,1,71.77,0,35,35,0,0,0,57.86,57.86l.3.3L68.27,68.27l48.12,48.12a3.78,3.78,0,0,1,.4.4Z"/><path class="cls-1" d="M125.42,128.68h59.33A8.9,8.9,0,0,1,178,113.94a9,9,0,0,1,.88-.87L199,92.94,212.78,79.2l.16-.16c.1-.11.21-.21.32-.32l.16-.16A18.87,18.87,0,0,1,242.89,83,35,35,0,0,0,185,69.08l-.3.3L174.62,79.49,126.51,127.6a3.18,3.18,0,0,1-.41.41Z"/><path class="cls-1" d="M117.47,128.68H58.14a8.9,8.9,0,0,0,6.72-14.74,9,9,0,0,0-.88-.87L43.85,92.94,30.11,79.2,30,79c-.11-.11-.22-.21-.32-.32l-.17-.16A18.87,18.87,0,0,0,0,83a35,35,0,0,1,57.86-13.9l.3.3L68.27,79.49l48.12,48.11a3.11,3.11,0,0,0,.4.41Z"/><path class="cls-1" d="M273.82,95.23c-6.91-4.76-10.32-11.86-10.32-21.34V72.21h20.13v.84c0,5.42,1.54,9.53,4.66,12.24s8.6,4.11,16.44,4.11,13.4-1.26,16.62-3.88,4.86-6.58,4.86-12V38.55h20.08V75.2a23,23,0,0,1-10.42,20q-10.42,7.14-31.14,7.14T273.82,95.23Z"/><path class="cls-1" d="M362.3,38.55h75V51.48h-55V63.71H433V75.76H382.38V88.65h55v12.93h-75Z"/><path class="cls-1" d="M450.08,87.9,502.8,51.43h-52V38.55h76.44V51.67L474.46,88.55h54.35v13H450.08Z"/><path class="cls-1" d="M546.87,96.68c-4.43-3.55-6.67-9.71-6.67-18.4h6.63c0,7.52,1.77,12.56,5.37,15.22s9,3.93,16,3.93,12.28-1.08,16-3.18,5.56-5,5.56-8.64c0-4.11-2.1-7-6.35-8.63a123.62,123.62,0,0,0-17.42-5c-8.59-1.92-15-4.06-19.28-6.35s-6.4-6-6.4-11.25c0-5,2.34-8.92,7-11.86s11.58-4.49,21-4.49q14.57,0,21.24,5.33t6.72,17.83h-6.58c0-7.37-1.87-12.32-5.56-14.85s-9-3.78-15.92-3.78-12.18,1.08-15.92,3.13-5.56,4.76-5.56,8.17c0,4,2.1,6.82,6.31,8.59a107.4,107.4,0,0,0,17.18,5.14q13.23,2.94,19.66,6.16c4.25,2.15,6.39,5.89,6.39,11.21s-2.28,9.34-6.81,12.42S577.74,102,568.21,102C558.41,102,551.31,100.23,546.87,96.68Z"/><path class="cls-1" d="M607.62,38.55H638.2q11.35,0,16.11,5.88c3.22,3.92,4.81,9.15,4.81,15.74S657.53,72,654.31,75.9s-8.54,5.88-16.11,5.88h-24v19.8h-6.54Zm28.72,38.66c5.83,0,10-1.5,12.51-4.44s3.73-7.14,3.73-12.6-1.21-9.62-3.73-12.56-6.63-4.49-12.51-4.49H614.16V77.21Z"/><path class="cls-1" d="M677.61,94.48q-8.34-7.49-8.36-24.42c0-11.29,2.8-19.42,8.36-24.46S690.92,38,700.91,38s17.74,2.53,23.3,7.57,8.36,13.17,8.36,24.46-2.8,19.43-8.36,24.42S710.9,102,700.91,102,683.17,99.53,677.61,94.48Zm41.51-3.12q6.87-6,6.86-21.3c0-10.22-2.28-17.32-6.86-21.38s-10.69-6.07-18.21-6.07-13.59,2-18.16,6.07-6.91,11.16-6.91,21.38,2.28,17.28,6.91,21.3,10.64,6.07,18.16,6.07S714.5,95.42,719.12,91.36Z"/><path class="cls-1" d="M743.12,38.55h34.93c6.11,0,10.55,1.54,13.35,4.67s4.16,7.23,4.16,12.42-1.41,9.29-4.25,12.37c-2.34,2.52-5.84,4-10.46,4.44l13.72,29.13h-7.19l-13.26-29H749.66v29h-6.54ZM776,68.34c4.48,0,7.75-1.08,9.85-3.32S789,59.7,789,55.73s-1-7.1-3.13-9.29-5.37-3.32-9.85-3.32H749.66V68.34Z"/><path class="cls-1" d="M828.29,43.12H803.12V38.55H859.9v4.57H834.82v58.46h-6.53Z"/></g></g></svg>