<svg xmlns="http://www.w3.org/2000/svg" viewBox="0 0 342.06 251.67"><defs><style>.cls-1{fill:#231f20;}</style></defs><title>logo-2_1</title><g id="Layer_2" data-name="Layer 2"><g id="Layer_1-2" data-name="Layer 1"><path class="cls-1" d="M176.3,165.43V81.88a12.53,12.53,0,0,0,20.76,9.46,12,12,0,0,0,1.23-1.24l28.35-28.34L246,42.41l.23-.22.45-.45.22-.23A26.58,26.58,0,0,0,240.66,0a49.32,49.32,0,0,1,19.58,81.49l-.42.42L245.58,96.14l-67.76,67.77a5.11,5.11,0,0,0-.57.57Z"/><path class="cls-1" d="M165.43,165.43V81.88a12.53,12.53,0,0,1-20.76,9.46,13.19,13.19,0,0,1-1.24-1.24L115.09,61.76,95.75,42.41l-.23-.22-.45-.45-.23-.23A26.59,26.59,0,0,1,101.07,0,49.32,49.32,0,0,0,81.49,81.49l.42.42L96.14,96.14l67.77,67.77a5.11,5.11,0,0,1,.57.57Z"/><path class="cls-1" d="M176.63,181.22h83.55a12.52,12.52,0,0,1-9.46-20.75,11.17,11.17,0,0,1,1.24-1.24l28.35-28.35,19.34-19.34.22-.23.46-.45.22-.22a26.58,26.58,0,0,1,41.51,6.22,49.33,49.33,0,0,0-81.49-19.58l-.41.42-14.24,14.24L178.16,179.7a5.11,5.11,0,0,1-.57.57Z"/><path class="cls-1" d="M165.43,181.22H81.88a12.52,12.52,0,0,0,9.46-20.75,11.17,11.17,0,0,0-1.24-1.24L61.76,130.88,42.41,111.54l-.22-.23-.45-.45-.23-.22A26.58,26.58,0,0,0,0,116.86,49.33,49.33,0,0,1,81.49,97.28l.42.42,14.23,14.24,67.77,67.76a3.84,3.84,0,0,0,.57.57Z"/><path class="cls-1" d="M45.73,238.32c0,10.9-8.39,12.77-16.89,12.77-4.79,0-10.63-.05-13.86-.05h-.11l4-10.89a9.15,9.15,0,0,0,7.5,3.65H29.1c4.12,0,5.89-2,5.89-4.9V223.1a11.75,11.75,0,0,0-3.86-8.49h14.6Z"/><path class="cls-1" d="M82,240.3c1.3,3.6,4,10.74,4,10.74l-32.27.05v-28a11.75,11.75,0,0,0-3.86-8.49l36.13,0c-1.31,3.6-2.66,7.14-4,10.74-1.83-2.61-4-3.65-7.51-3.65h-10v7.56H76c-1,2.86-1.56,4.22-2.66,7.08H64.44V244h10C78,244,80.13,242.91,82,240.3Z"/><path class="cls-1" d="M110,221.75h-6.1a9.28,9.28,0,0,0-7.51,3.65l-3.91-10.79h33.41l-17,29.34h6.36c3.49,0,5.68-1,7.5-3.65l3.91,10.79H92.48Z"/><path class="cls-1" d="M164.05,240.51v.63c0,6.88-7.14,10.47-15.64,10.47a31,31,0,0,1-17.1-4.58l8.19-7.25a12.8,12.8,0,0,0,9.17,3.7c2.71,0,4.69-.88,4.69-2.6v-.26c0-2-1.93-3-9.17-5.42C137.31,232.85,133,230,133,224v-.52c0-6.36,7.51-9.38,15-9.38,6.78,0,11.73,1.61,15.49,4.58l-7.46,6.57a9.54,9.54,0,0,0-8.08-3.91c-2.81,0-4.79,1-4.79,2.35V224c0,1.41,1.87,2.5,8.65,4.79C160,231.55,164.05,233.74,164.05,240.51Z"/><path class="cls-1" d="M203.3,224v5.47c0,7.3-5.89,9.39-15.54,9.39h-5v12.19H172v-28a11.75,11.75,0,0,0-3.86-8.49h19.65C197.41,214.61,203.3,216.69,203.3,224Zm-10.74.78c0-2.08-1.51-3.07-4.8-3.07h-5v10.06h5c3.29,0,4.8-1,4.8-3.13Z"/><path class="cls-1" d="M206.63,240.25V225.5c0-8.91,9.07-11.41,16.06-11.41s16,2.5,16,11.41v14.75c0,8.91-9,11.42-16,11.42S206.63,249.16,206.63,240.25Zm21.32-.88v-13c0-2.87-2.45-4.49-5.26-4.49s-5.27,1.62-5.27,4.49v13c0,2.86,2.45,4.48,5.27,4.48S228,242.23,228,239.37Z"/><path class="cls-1" d="M267.62,251l-4-12.67h-6.3v12.72H246.61v-28a11.75,11.75,0,0,0-3.86-8.49H262.4c9.65,0,15.54,2.08,15.54,9.43v5c0,3.76-1.57,6.15-4.44,7.56L278.77,251Zm-5.22-19.75c3.29,0,4.8-1,4.8-3.13v-3.34c0-2.08-1.51-3.07-4.8-3.07h-5v9.54Z"/><path class="cls-1" d="M296.7,221.7h-2.87c-3.49,0-5.68,1-7.5,3.64l-3.91-10.73h39.35l-3.91,10.73c-1.82-2.6-4-3.64-7.5-3.64h-2.87v29.39H296.7Z"/><path class="cls-1" d="M318,247.71v-2.25c0-2.5,2.13-4,4.58-4s4.59,1.51,4.59,4v2.25c0,2.5-2.14,3.9-4.59,3.9S318,250.21,318,247.71Z"/></g></g></svg>