<svg xmlns="http://www.w3.org/2000/svg" viewBox="0 0 199.26 105.57"><defs><style>.cls-1{fill:#231f20;}</style></defs><title>logo-mobile</title><g id="Layer_2" data-name="Layer 2"><g id="Layer_1-2" data-name="Layer 1"><path class="cls-1" d="M102.7,96.37V47.7a7.3,7.3,0,0,0,12.09,5.51,6.12,6.12,0,0,0,.72-.72L132,36l11.26-11.27.14-.13.26-.27.13-.13A15.49,15.49,0,0,0,140.19,0,28.74,28.74,0,0,1,151.6,47.47l-.24.24-8.3,8.3L103.59,95.48a2.57,2.57,0,0,0-.33.33Z"/><path class="cls-1" d="M96.37,96.37V47.7a7.3,7.3,0,0,1-12.09,5.51,6.12,6.12,0,0,1-.72-.72L67,36,55.78,24.71l-.14-.13-.26-.27-.13-.13A15.49,15.49,0,0,1,58.88,0,28.74,28.74,0,0,0,47.47,47.47l.24.24L56,56,95.48,95.48a2.57,2.57,0,0,1,.33.33Z"/><path class="cls-1" d="M102.9,105.57h48.67a7.29,7.29,0,0,1-5.51-12.09,6.12,6.12,0,0,1,.72-.72l16.51-16.52L174.56,65l.13-.14.26-.26.13-.13a15.49,15.49,0,0,1,24.18,3.63,28.74,28.74,0,0,0-47.47-11.41l-.24.25-8.29,8.29-39.48,39.47a3.51,3.51,0,0,1-.33.34Z"/><path class="cls-1" d="M96.37,105.57H47.7a7.3,7.3,0,0,0,5.51-12.09,6.12,6.12,0,0,0-.72-.72L36,76.24,24.71,65l-.13-.14-.27-.26-.13-.13A15.49,15.49,0,0,0,0,68.08,28.74,28.74,0,0,1,47.47,56.67l.24.25L56,65.21l39.47,39.47a3.51,3.51,0,0,0,.33.34Z"/></g></g></svg>